<?xml version="1.0" encoding="UTF-8"?>
<svg version="1.1" xmlns="http://www.w3.org/2000/svg" width="512" height="512">
<path d="M0 0 C13.27881422 11.09369289 20.20424293 24.17879097 25.8125 40.1875 C26.46818756 41.85851647 27.12983925 43.52732033 27.8125 45.1875 C29.3903125 44.1046875 29.3903125 44.1046875 31 43 C47.90590674 32.44879579 68.54981176 30.11505005 87.8125 34.1875 C104.96674863 38.7619663 119.10900501 48.88909889 128.24609375 64.1953125 C137.33311418 81.55356099 138.94167448 101.18637923 133.76953125 119.9765625 C131.23992034 127.49171723 127.85682771 134.37746364 123.8125 141.1875 C125.42125 141.7753125 125.42125 141.7753125 127.0625 142.375 C128.64744195 142.97493401 130.23058327 143.57963385 131.8125 144.1875 C132.7303125 144.53941406 133.648125 144.89132813 134.59375 145.25390625 C154.57512766 153.22016603 169.53089553 165.07018363 178.44140625 184.79296875 C184.72713263 200.6415951 185.40698351 219.27472457 178.8125 235.1875 C170.04536039 254.71902699 154.38989213 267.4778984 134.75 275.0625 C132.77257138 275.77567098 130.79355244 276.48445801 128.8125 277.1875 C127.14271821 277.84632547 125.47492613 278.51032825 123.8125 279.1875 C124.35519531 280.23808594 124.89789063 281.28867187 125.45703125 282.37109375 C135.10520583 301.22715369 140.47259837 322.52791128 133.8515625 343.59765625 C130.31938283 352.40154768 126.06463006 360.03428689 119.8125 367.1875 C119.30332031 367.79078125 118.79414063 368.3940625 118.26953125 369.015625 C106.49486679 381.92414603 89.75269852 387.07188409 72.8125 388.1875 C57.81775072 388.32763784 44.63115998 384.61764932 31.54296875 377.578125 C29.02616996 376.03622324 29.02616996 376.03622324 26.8125 376.1875 C26.39291016 377.58548828 26.39291016 377.58548828 25.96484375 379.01171875 C19.56459403 399.64564431 8.52569421 416.76630871 -10.69970703 427.45166016 C-25.73965695 435.36805234 -43.41582313 436.87194345 -59.875 432.5625 C-79.08990736 426.0124839 -93.09049745 412.86619039 -102.30322266 395.01025391 C-104.63125452 390.2115002 -106.4061302 385.20709629 -108.1875 380.1875 C-108.84632547 378.51771821 -109.51032825 376.84992613 -110.1875 375.1875 C-111.18007812 375.71859375 -112.17265625 376.2496875 -113.1953125 376.796875 C-132.74235833 387.05022869 -152.29779729 390.99173573 -173.92578125 385.18359375 C-190.3681007 379.7387601 -202.68194728 369.73876033 -211.4296875 354.7578125 C-215.78065419 345.9205157 -218.89361307 336.08169322 -219.1875 326.1875 C-219.23777344 325.54683594 -219.28804687 324.90617187 -219.33984375 324.24609375 C-220.07844298 308.67642188 -215.09702341 291.86865751 -206.1875 279.1875 C-207.26 278.795625 -208.3325 278.40375 -209.4375 278 C-211.02244195 277.40006599 -212.60558327 276.79536615 -214.1875 276.1875 C-215.56421875 275.65962891 -215.56421875 275.65962891 -216.96875 275.12109375 C-236.95012766 267.15483397 -251.90589553 255.30481637 -260.81640625 235.58203125 C-266.60993625 220.97441287 -268.06079013 202.90672653 -262.4453125 187.96484375 C-253.95891405 169.22624344 -240.46402115 154.13841816 -220.95532227 146.66455078 C-217.71172669 145.46940573 -214.44987222 144.33039179 -211.1875 143.1875 C-209.51648353 142.53181244 -207.84767967 141.87016075 -206.1875 141.1875 C-207.2703125 139.6096875 -207.2703125 139.6096875 -208.375 138 C-218.10447138 122.41073336 -221.3659327 102.37118938 -217.97265625 84.37109375 C-213.51631756 66.30185975 -204.7297038 52.22931538 -189.0625 41.875 C-171.40983595 31.65176901 -151.72211332 29.94733536 -132.00390625 35.00390625 C-125.51815699 37.01963326 -119.57954465 39.83791202 -113.5859375 43.015625 C-111.33290737 44.33383339 -111.33290737 44.33383339 -109.1875 44.1875 C-108.76791016 42.78951172 -108.76791016 42.78951172 -108.33984375 41.36328125 C-101.93959403 20.72935569 -90.90069421 3.60869129 -71.67529297 -7.07666016 C-48.23917936 -19.41243704 -20.76982719 -15.90140499 0 0 Z " fill="#FECD00" transform="translate(297.1875,45.8125)"/>
<path d="M0 0 C1.3104126 0.00757324 2.6208252 0.01514648 3.97094727 0.02294922 C29.94082613 0.46221996 54.80606163 10.14735173 74.25 27.4375 C75.06726563 28.10007813 75.88453125 28.76265625 76.7265625 29.4453125 C96.65636277 46.08511399 110.06451956 72.80933054 113.25 98.4375 C113.53849884 103.19132368 113.58398835 107.92580711 113.5625 112.6875 C113.55512817 114.61456787 113.55512817 114.61456787 113.54760742 116.58056641 C113.4362051 125.58758662 112.82077609 133.76374326 110.25 142.4375 C109.93289063 143.61054688 109.61578125 144.78359375 109.2890625 145.9921875 C104.7019607 161.38012475 97.06831667 175.57598851 86.25 187.4375 C85.59 188.24960937 84.93 189.06171875 84.25 189.8984375 C67.30721008 210.24262085 40.32231828 223.37282124 14.25 226.4375 C-16.64952274 228.44101035 -47.23394954 222.52050165 -71.203125 201.70703125 C-72.04359375 200.95808594 -72.8840625 200.20914063 -73.75 199.4375 C-74.59046875 198.74011719 -75.4309375 198.04273438 -76.296875 197.32421875 C-92.14254489 183.86524137 -102.63323712 165.11772476 -108.75 145.4375 C-108.96027832 144.78185059 -109.17055664 144.12620117 -109.38720703 143.45068359 C-118.27809263 114.5957825 -112.69645066 84.3280914 -99.02734375 58.13671875 C-95.23621502 51.34032169 -90.7599672 45.37484411 -85.75 39.4375 C-85.30914062 38.87417969 -84.86828125 38.31085938 -84.4140625 37.73046875 C-81.00049247 33.38904915 -77.00599777 29.91773898 -72.75 26.4375 C-71.89664063 25.73496094 -71.04328125 25.03242188 -70.1640625 24.30859375 C-57.87133069 14.62596253 -43.95292169 7.32061981 -28.75 3.4375 C-27.74211426 3.17928467 -26.73422852 2.92106934 -25.69580078 2.6550293 C-17.05274213 0.61156242 -8.86708662 -0.07243131 0 0 Z " fill="#A55E54" transform="translate(255.75,142.5625)"/>
<path d="M0 0 C20.75750142 0.74133934 37.5182878 13.94021549 51.25 28.36328125 C66.92230707 46.57621622 70.10431853 67.76023015 69 91 C67.49024137 103.51308425 61.20168084 114.61625873 53 124 C52.49082031 124.60328125 51.98164063 125.2065625 51.45703125 125.828125 C39.68236679 138.73664603 22.94019852 143.88438409 6 145 C-13.2196265 145.17962268 -32.08117245 139.55493663 -46 126 C-47.34998163 124.84923896 -48.70422042 123.70345485 -50.0625 122.5625 C-61.94559619 112.06923962 -71.53002016 97.6149093 -75 82 C-75.02947133 79.66685279 -75.03325078 77.3330964 -75 75 C-74.09121094 74.6596875 -73.18242187 74.319375 -72.24609375 73.96875 C-57.95586272 68.50720953 -45.52738035 62.21620912 -34 52 C-33.25621094 51.41089844 -32.51242187 50.82179688 -31.74609375 50.21484375 C-16.5909318 37.87924681 -5.70688251 18.47752869 0 0 Z " fill="#FECD00" transform="translate(364,289)"/>
<path d="M0 0 C18.08027312 2.68004049 35.85347631 12.26423379 47.31835938 26.65478516 C59.34336092 42.9631109 63.4127161 61.1890551 60.69970703 81.21679688 C57.5190073 97.4403914 47.13505948 112.19801117 34 122 C24.22757893 128.3532568 11.88640457 135.98653861 0 136 C-2.18133884 134.03931682 -3.58181168 132.46173344 -5.25 130.125 C-10.19157639 123.77448657 -15.44973591 118.73930872 -22 114 C-22.7528125 113.44828125 -23.505625 112.8965625 -24.28125 112.328125 C-33.0484992 106.50330875 -43.82988604 103.46810265 -54 101 C-53.56441599 97.80571723 -53.12154552 94.63189065 -52.51245117 91.46533203 C-51.01231979 83.47794137 -50.66605462 75.73993326 -50.6875 67.625 C-50.67138672 66.41328125 -50.65527344 65.2015625 -50.63867188 63.953125 C-50.63459538 56.3056276 -51.52829681 49.36751774 -53.35473633 41.93896484 C-54 39 -54 39 -54 35 C-52.36804688 34.56300781 -52.36804688 34.56300781 -50.703125 34.1171875 C-29.29133077 28.22136339 -13.24877094 18.0216201 0 0 Z " fill="#FED630" transform="translate(419,188)"/>
<path d="M0 0 C1.7890625 1.96875 1.7890625 1.96875 3.625 4.5 C15.94681827 20.4298645 33.27853669 30.32311701 53 34 C52.22553685 42.13186303 52.22553685 42.13186303 51.52563477 44.82592773 C49.68406205 51.93243562 49.66856985 58.87667613 49.6875 66.1875 C49.67138672 67.41275391 49.65527344 68.63800781 49.63867188 69.90039062 C49.63462768 77.57223263 50.50159783 84.52220653 52.35473633 91.9699707 C52.94905116 94.76075443 53.12506543 97.16045367 53 100 C52.07960938 100.20753906 51.15921875 100.41507812 50.2109375 100.62890625 C28.99976431 105.79129973 11.64911246 117.16150807 -1 135 C-19.08027312 132.31995951 -36.85347631 122.73576621 -48.31835938 108.34521484 C-60.51914687 91.79848793 -64.51608604 73.14854909 -61.69970703 52.83398438 C-57.93651759 34.67479761 -44.86173653 19.58514385 -29.9375 9.375 C-23.04207444 5.1166352 -8.08005838 -3.44919488 0 0 Z " fill="#FED630" transform="translate(94,189)"/>
<path d="M0 0 C2.9296875 0.48828125 5.859375 0.9765625 8.7890625 1.46484375 C10.37847656 1.72974609 10.37847656 1.72974609 12 2 C12.92417725 2.17184814 13.84835449 2.34369629 14.80053711 2.52075195 C29.0953762 4.66197814 45.32325232 4.25823722 59.34765625 0.65625 C62 0 62 0 66 0 C66.12375 0.7528125 66.2475 1.505625 66.375 2.28125 C70.50349718 23.54301048 83.46928128 41.56912672 101 54 C98.31995951 72.08027312 88.73576621 89.85347631 74.34521484 101.31835938 C58.0368891 113.34336092 39.8109449 117.4127161 19.78320312 114.69970703 C3.5596086 111.5190073 -11.19801117 101.13505948 -21 88 C-27.3532568 78.22757893 -34.98653861 65.88640457 -35 54 C-33.03919077 51.81852092 -31.46126939 50.41899049 -29.125 48.75 C-27.90951005 47.79910316 -26.69990652 46.84063732 -25.49609375 45.875 C-24.89780762 45.39546875 -24.29952148 44.9159375 -23.68310547 44.421875 C-10.30154677 33.11723359 -4.18186098 16.4258674 0 0 Z " fill="#FED630" transform="translate(223,365)"/>
<path d="M0 0 C16.85533451 11.88162925 26.81988474 27.97060641 31.96875 47.71484375 C32 51 32 51 30.0078125 53.30078125 C29.05648437 53.96464844 28.10515625 54.62851563 27.125 55.3125 C11.91885505 66.77024327 0.92372743 83.62015571 -2.66015625 102.47265625 C-2.82837891 103.72369141 -2.82837891 103.72369141 -3 105 C-6.12196672 104.58373777 -9.21245392 104.16734726 -12.29443359 103.51245117 C-20.15464558 101.86716761 -27.80095324 101.6672586 -35.8125 101.6875 C-37.07642578 101.67138672 -38.34035156 101.65527344 -39.64257812 101.63867188 C-47.43738728 101.63468068 -54.50993501 102.48483775 -62.08081055 104.35473633 C-65 105 -65 105 -69 105 C-69.20753906 104.07960938 -69.41507813 103.15921875 -69.62890625 102.2109375 C-74.6812152 81.45207812 -85.99798616 63.00134256 -104 51 C-101.31995951 32.91972688 -91.73576621 15.14652369 -77.34521484 3.68164062 C-54.47920521 -13.17869228 -24.19429644 -15.8011016 0 0 Z " fill="#FED630" transform="translate(292,42)"/>
<path d="M0 0 C5.97433655 -0.25479774 10.67554968 0.42849554 16.3125 2.375 C17.08086182 2.63756592 17.84922363 2.90013184 18.64086914 3.1706543 C32.51359049 8.13912869 45.10479171 15.06300221 56 25 C56.81210937 25.66 57.62421875 26.32 58.4609375 27 C78.40840988 43.61240602 91.81583276 70.38239557 95 96 C95.28849884 100.75382368 95.33398835 105.48830711 95.3125 110.25 C95.30512817 112.17706787 95.30512817 112.17706787 95.29760742 114.14306641 C95.1862051 123.15008662 94.57077609 131.32624326 92 140 C91.68289063 141.17304688 91.36578125 142.34609375 91.0390625 143.5546875 C86.4519607 158.94262475 78.81831667 173.13848851 68 185 C67.34 185.81210937 66.68 186.62421875 66 187.4609375 C49.05721008 207.80512085 22.07231828 220.93532124 -4 224 C-34.91434291 226.00447128 -65.44493208 220.07259227 -89.44140625 199.28515625 C-90.28574219 198.53105469 -91.13007813 197.77695312 -92 197 C-92.87527344 196.25621094 -93.75054687 195.51242187 -94.65234375 194.74609375 C-100.1760707 189.96993886 -104.75741838 184.94242393 -109 179 C-105.36063439 179 -104.96768454 179.66302029 -102.3125 182 C-80.56852074 199.40927999 -52.92836865 202.41448642 -26.07421875 200.7578125 C-1.14183793 197.93961951 22.6721189 183.70334206 39 165 C49.72163556 151.42762856 56.54729286 136.69578689 60.54345703 119.91650391 C60.92183411 118.32812954 61.33012312 116.74691485 61.74609375 115.16796875 C67.32739792 91.95744176 60.51905555 64.30763263 49 44 C45.95510901 39.1117091 42.53990578 34.53757023 39 30 C38.47792969 29.30519531 37.95585937 28.61039063 37.41796875 27.89453125 C28.14301826 16.21397401 13.43584328 7.18048791 0 1 C0 0.67 0 0.34 0 0 Z " fill="#934D47" transform="translate(274,145)"/>
<path d="M0 0 C1.8125 1.0625 1.8125 1.0625 3 3 C3.04781448 5.33284338 3.05124005 7.66722935 3 10 C1.98421875 10.4846875 0.9684375 10.969375 -0.078125 11.46875 C-11.99558539 17.23488799 -23.02417009 23.1060611 -31.8671875 33.21484375 C-34.57286508 35.47948598 -36.50819921 35.82540996 -40 36 C-42.375 34.375 -42.375 34.375 -44 32 C-44.421875 29.7109375 -44.421875 29.7109375 -44 27 C-42.34930966 24.83535846 -40.82184468 23.10998872 -38.875 21.25 C-38.06953735 20.46665283 -38.06953735 20.46665283 -37.24780273 19.66748047 C-28.60047143 11.52896207 -12.35986405 -1.2058404 0 0 Z " fill="#C0817C" transform="translate(230,168)"/>
<path d="M0 0 C1.8125 1.125 1.8125 1.125 3 3 C4.12186341 8.88978291 1.07400843 13.21260982 -2 18 C-3 19 -3 19 -5.875 19.25 C-9 19 -9 19 -10.875 17.875 C-12.62151472 14.96414213 -12.50034181 13.37730722 -12 10 C-7.20753401 -0.70317405 -7.20753401 -0.70317405 0 0 Z " fill="#C0817C" transform="translate(182,210)"/>
</svg>
